<svg width="54" height="55" viewBox="0 0 54 55" fill="none" xmlns="http://www.w3.org/2000/svg">
<path d="M51.828 41.7775C52.2373 41.6618 52.6009 41.4228 52.8694 41.0929C53.1378 40.763 53.298 40.3583 53.3281 39.9341C53.3582 39.5098 53.2567 39.0866 53.0374 38.7222C52.8182 38.3577 52.4919 38.0697 52.103 37.8975C49.6648 36.7699 47.3549 35.3836 45.213 33.7625C44.7841 33.4375 44.4402 33.0136 44.2107 32.5268C43.9812 32.0401 43.8729 31.5051 43.895 30.9674C43.9171 30.4298 44.069 29.9054 44.3377 29.4392C44.6063 28.973 44.9839 28.5787 45.438 28.29L48.4555 26.3775C49.2017 25.9034 49.7291 25.1523 49.9216 24.2894C50.114 23.4265 49.9558 22.5225 49.4817 21.7762C49.0077 21.03 48.2565 20.5026 47.3936 20.3102C46.5307 20.1177 45.6267 20.2759 44.8805 20.75L41.668 22.79V15C41.668 11.0218 40.0876 7.20644 37.2746 4.3934C34.4615 1.58035 30.6462 0 26.668 0C22.6897 0 18.8744 1.58035 16.0614 4.3934C13.2483 7.20644 11.668 11.0218 11.668 15V22.79L8.44798 20.75C8.07847 20.5153 7.66635 20.3556 7.23514 20.2801C6.80393 20.2047 6.36207 20.2149 5.93481 20.3102C5.50754 20.4055 5.10323 20.584 4.74496 20.8355C4.38668 21.0871 4.08147 21.4067 3.84673 21.7762C3.61199 22.1458 3.45233 22.5579 3.37686 22.9891C3.3014 23.4203 3.31161 23.8622 3.4069 24.2894C3.5022 24.7167 3.68072 25.121 3.93227 25.4793C4.18382 25.8375 4.50347 26.1428 4.87298 26.3775L7.89048 28.29C8.3446 28.5787 8.72212 28.973 8.9908 29.4392C9.25949 29.9054 9.41138 30.4298 9.43348 30.9674C9.45559 31.5051 9.34726 32.0401 9.11775 32.5268C8.88824 33.0136 8.54437 33.4375 8.11548 33.7625C5.97354 35.3836 3.66362 36.7699 1.22548 37.8975C0.83777 38.0708 0.512729 38.3591 0.294435 38.7233C0.0761414 39.0876 -0.0248417 39.5101 0.00518106 39.9337C0.0352038 40.3573 0.19478 40.7614 0.462267 41.0913C0.729755 41.4211 1.09221 41.6607 1.50048 41.7775L6.42548 42.7775C6.93713 42.9237 7.37187 43.2632 7.6378 43.7241C7.90372 44.1851 7.97999 44.7314 7.85048 45.2475C7.72167 45.7635 7.72328 46.3033 7.85515 46.8185C7.98702 47.3337 8.245 47.808 8.60586 48.1986C8.96672 48.5892 9.4191 48.8839 9.92224 49.0561C10.4254 49.2283 10.9635 49.2726 11.488 49.185L13.053 48.935C14.171 48.7514 15.3167 48.8371 16.3949 49.1849C17.4732 49.5327 18.453 50.1327 19.253 50.935C21.1345 53.1633 23.7775 54.6122 26.668 55C29.5581 54.6084 32.1993 53.1559 34.078 50.925C34.878 50.1227 35.8577 49.5227 36.936 49.1749C38.0143 48.8271 39.16 48.7414 40.278 48.925L41.8455 49.175C42.3687 49.2618 42.9053 49.2175 43.4071 49.0459C43.909 48.8743 44.3604 48.5808 44.7209 48.1918C45.0814 47.8028 45.3398 47.3304 45.4728 46.817C45.6058 46.3035 45.6093 45.7651 45.483 45.25C45.3535 44.7339 45.4297 44.1876 45.6957 43.7266C45.9616 43.2657 46.3963 42.9262 46.908 42.78L51.828 41.7775Z" fill="#FFEF5E"/>
</svg>
